<?xml version="1.0" encoding="UTF-8"?>
<svg id="Layer_1" xmlns="http://www.w3.org/2000/svg" version="1.1" viewBox="0 0 1801.7 382.8">
  <!-- Generator: Adobe Illustrator 29.2.1, SVG Export Plug-In . SVG Version: 2.1.0 Build 116)  -->
  <defs>
    <style>
      .st0 {
        fill-rule: evenodd;
      }

      .st0, .st1 {
        fill: #fff;
      }
    </style>
  </defs>
  <g>
    <path class="st0" d="M232,381.5v-120.5l215.4-120.5v120.5l-215.4,120.5Z"/>
    <path class="st0" d="M215.4,382.8v-120.5L0,141.9v120.5l215.4,120.5Z"/>
    <path class="st0" d="M54.8,102.2c-1.8,1.7-3.4,3.5-4.7,5.4-.5-.7-.9-1.3-1.3-2l6-3.3Z"/>
    <path class="st0" d="M160.8,42.9c.5,1,1.1,2,1.8,3,2.7-3.9,6.5-7.4,11.4-10.4l-13.2,7.4ZM48.8,105.5c.4.7.8,1.4,1.3,2,1.3-1.9,2.9-3.7,4.7-5.4l-6,3.3Z"/>
    <path class="st0" d="M394.2,101.8c.7-2.1,1.1-4.2,1.1-6.3,0-18.6-27-33.8-60.4-33.8s-7.7.2-11.3.6l-44.6-25c.2-1.2.3-2.3.3-3.5,0-18.6-27-33.8-60.4-33.8s-60.4,15.1-60.4,33.8.8,6.2,2.2,9.1l13.2-7.4c-4.8,3-8.7,6.5-11.4,10.4,8.7,12.7,30.7,21.6,56.3,21.6s47.6-9,56.3-21.6c2.6,3.8,4,7.8,4,12.1,0,18.6-27,33.8-60.4,33.8s-60.4-15.1-60.4-33.8,1.4-8.4,4-12.1c-.7-1-1.3-2-1.8-3l-36.4,20.3c-5.7-1-11.8-1.5-18.1-1.5-33.3,0-60.4,15.1-60.4,33.8s1,6.9,2.7,10.1l6-3.3c-1.8,1.7-3.4,3.5-4.7,5.4,8.7,12.7,30.7,21.6,56.3,21.6s47.6-9,56.3-21.6c2.6,3.8,4,7.8,4,12.1,0,18.6-27,33.8-60.4,33.8s-60.4-15.1-60.4-33.8,1.4-8.4,4-12.1c-.5-.7-.9-1.3-1.3-2l-37.8,21.1,213.8,119.6,213.8-119.6-44.5-24.9ZM218.9,212.3c-33.3,0-60.4-15.1-60.4-33.8s1.4-8.4,4-12.1c8.7,12.7,30.7,21.6,56.3,21.6s47.6-9,56.3-21.6c2.6,3.8,4,7.8,4,12.1,0,18.6-27,33.8-60.4,33.8ZM334.9,153.4c-33.3,0-60.4-15.1-60.4-33.8s1.4-8.4,4-12.1c8.7,12.7,30.7,21.6,56.3,21.6s47.6-9,56.3-21.6c2.6,3.8,4,7.8,4,12.1,0,18.6-27,33.8-60.4,33.8Z"/>
    <path class="st0" d="M174,35.5c-4.8,3-8.7,6.5-11.4,10.4-.7-1-1.3-2-1.8-3l13.2-7.4Z"/>
  </g>
  <g>
    <path class="st1" d="M529.7,295.1V72.2h103.5c19.4,0,32.9,10.4,40.5,31.2,1.9,5.3,2.9,10.6,2.9,15.9v26.7c0,16.8-5.8,29-17.5,36.6,8.9,4.7,14.6,13.7,16.9,27.1.4,1.5.6,3.8.6,7v20.7c0,38.4-15.6,57.6-46.9,57.6-2.5.2-10.9.3-25.1.3s-41.7-.1-74.9-.3ZM626.5,168.4c6,0,10.9-2,14.6-5.9,3.7-3.9,5.5-9.2,5.5-15.8v-21.4c0-10.9-5.7-17.6-17.2-20.2-1.2-.4-2.3-.6-3.5-.6h-67.3v64h67.9ZM558.5,263h67.1c7.6,0,13.5-4,17.8-12.1,2.1-4,3.2-7.9,3.2-11.5v-21c0-6.6-3.7-11.8-11.1-15.6-2.9-1.5-6-2.2-9.3-2.2h-67.6v62.4Z"/>
    <path class="st1" d="M710.1,295.1v-122.9c0-2.8.2-5.9.6-9.6,1.2-11,4-19.1,8.6-24,4.6-5,11.9-8.3,22-10,2.5-.4,4.8-.6,6.7-.6h14.3v27.7h-12.7c-9.4,0-14.1,5.6-14.1,16.9v122.6h-25.4Z"/>
    <path class="st1" d="M779.2,91.3c0-5.3,1.6-9.8,5-13.5,3.3-3.7,7.4-5.6,12.2-5.6s9,2,12.4,5.9c3.4,3.9,5.1,8.5,5.1,13.9s-1.7,9.8-5,13.4c-3.3,3.6-7.4,5.4-12.2,5.4s-9.2-1.9-12.5-5.6c-3.3-3.7-5-8.3-5-13.9ZM783.9,295.1h25.7V128h-25.7v167.2Z"/>
    <path class="st1" d="M845.1,252.8v-82.8c0-13.8,4-24.4,12-31.8,7.4-6.8,17.5-10.2,30.3-10.2h58.6v27.7h-58.8c-11.1,0-16.7,6-16.7,17.9v72.8c0,5.8,1.6,10.7,4.8,14.9,3.2,4.1,7.5,6.2,12.7,6.2h58.2v27.7h-58.3c-8.6,0-15.9-1.9-22.2-5.7-13.8-8.5-20.7-20.7-20.7-36.6Z"/>
    <path class="st1" d="M974.8,72.2h25.7v222.9h-25.7V72.2ZM1001.7,208.8c0,4.7,2,9.3,6.1,14l63.6,72.3h35.2l-76.2-86.6,73-80.5h-36.1l-59.5,65.6c-4.1,4.5-6.1,9.6-6.1,15.3Z"/>
    <path class="st1" d="M1123.2,91.3c0-5.3,1.6-9.8,5-13.5,3.3-3.7,7.4-5.6,12.2-5.6s9,2,12.4,5.9c3.4,3.9,5.1,8.5,5.1,13.9s-1.7,9.8-5,13.4c-3.3,3.6-7.4,5.4-12.2,5.4s-9.2-1.9-12.5-5.6c-3.3-3.7-5-8.3-5-13.9ZM1127.9,295.1h25.7V128h-25.7v167.2Z"/>
    <path class="st1" d="M1189.1,295.1v-124.2c0-28.7,14.4-43,43.1-43h40.2c28.8,0,43.1,14.3,43.1,43v124.2h-25.4v-128.3c-1.4-7-7.1-10.5-17.3-10.5h-40.8c-6.5,0-11,1.3-13.7,3.8-2.6,2.5-4,7.3-4,14.3v120.7h-25.4Z"/>
    <path class="st1" d="M1351.2,250.2v-20.1c0-15.1,3-27.2,9.1-36.3,6.8-10.4,16.9-15.6,30.1-15.6h63.2v-11.3c0-3-1-5.7-2.9-7.9-1.9-2.3-4.2-3.4-6.7-3.4h-92.7v-27.7h90.7c20,0,32.2,10.3,36.4,30.9.4,3.4.6,5.9.6,7.6v86c0,7.6-1.8,14.8-5.5,21.3-8.2,14.2-18.8,21.3-31.8,21.3h-51c-7.6,0-15-2.9-22.2-8.6-7.2-5.7-12.1-12.5-14.9-20.4-1.6-4.7-2.3-10-2.3-15.9ZM1383.3,264.9c2.9,1.7,7.7,2.5,14.4,2.5h34.7c14.1,0,21.2-5.5,21.2-16.6v-27.1c0-10.6-6-16.6-17.9-17.8h-40.8c-12.1,1.5-18.2,7.4-18.2,17.8v27.1c0,6.8,2.2,11.5,6.8,14Z"/>
    <path class="st1" d="M1514.5,295.1V72.2h25.4v55.7h26.5v27.7h-26.5v139.5h-25.4Z"/>
    <path class="st1" d="M1581.5,254.1v-86.9c0-22.9,11.4-35.9,34.1-38.8.8,0,1.9-.1,3.5-.3h50.1c1.4,0,3.4.2,6.1.6,23.1,3.6,34.7,16.5,34.7,38.5v86.9c0,15.3-7,27.3-21,36-5.4,3.4-12.1,5.1-19.8,5.1h-47.8c-19.4,0-32.2-10.1-38.2-30.3-2.1-6.8-2.7-10.4-1.7-10.8ZM1625.4,267.4h41.4c11.9,0,17.9-7.1,17.9-21.4v-70.3c0-13.4-6-20.1-17.9-20.1h-41.4c-12.3,0-18.5,6.7-18.5,20.1v69.3c0,14.9,6.2,22.4,18.5,22.4Z"/>
    <path class="st1" d="M1745.7,295.1v-122.9c0-2.8.2-5.9.6-9.6,1.2-11,4-19.1,8.6-24,4.6-5,11.9-8.3,22-10,2.5-.4,4.8-.6,6.7-.6h14.3v27.7h-12.7c-9.4,0-14.1,5.6-14.1,16.9v122.6h-25.4Z"/>
  </g>
</svg>