<?xml version="1.0" encoding="UTF-8"?>
<svg id="Layer_1" xmlns="http://www.w3.org/2000/svg" version="1.1" viewBox="0 0 1801.7 382.8">
  <!-- Generator: Adobe Illustrator 29.2.1, SVG Export Plug-In . SVG Version: 2.1.0 Build 116)  -->
  <defs>
    <style>
      .st0, .st1 {
        fill: #343a40;
      }

      .st2 {
        isolation: isolate;
      }

      .st1 {
        fill-rule: evenodd;
      }
    </style>
  </defs>
  <g>
    <path class="st1" d="M232,381.5v-120.5l215.4-120.5v120.5l-215.4,120.5Z"/>
    <path class="st1" d="M215.4,382.8v-120.5L0,141.9v120.5l215.4,120.5h0Z"/>
    <path class="st1" d="M54.8,102.2c-1.8,1.7-3.4,3.5-4.7,5.4-.5-.7-.9-1.3-1.3-2l6-3.3h0Z"/>
    <path class="st1" d="M160.8,42.9c.5,1,1.1,2,1.8,3,2.7-3.9,6.5-7.4,11.4-10.4l-13.2,7.4ZM48.8,105.5c.4.7.8,1.4,1.3,2,1.3-1.9,2.9-3.7,4.7-5.4l-6,3.3h0Z"/>
    <path class="st1" d="M394.2,101.8c.7-2.1,1.1-4.2,1.1-6.3,0-18.6-27-33.8-60.4-33.8s-7.7.2-11.3.6l-44.6-25c.2-1.2.3-2.3.3-3.5,0-18.6-27-33.8-60.4-33.8s-60.4,15.1-60.4,33.8.8,6.2,2.2,9.1l13.2-7.4c-4.8,3-8.7,6.5-11.4,10.4,8.7,12.7,30.7,21.6,56.3,21.6s47.6-9,56.3-21.6c2.6,3.8,4,7.8,4,12.1,0,18.6-27,33.8-60.4,33.8s-60.4-15.1-60.4-33.8,1.4-8.4,4-12.1c-.7-1-1.3-2-1.8-3l-36.4,20.3c-5.7-1-11.8-1.5-18.1-1.5-33.3,0-60.4,15.1-60.4,33.8s1,6.9,2.7,10.1l6-3.3c-1.8,1.7-3.4,3.5-4.7,5.4,8.7,12.7,30.7,21.6,56.3,21.6s47.6-9,56.3-21.6c2.6,3.8,4,7.8,4,12.1,0,18.6-27,33.8-60.4,33.8s-60.4-15.1-60.4-33.8,1.4-8.4,4-12.1c-.5-.7-.9-1.3-1.3-2l-37.8,21.1,213.8,119.6,213.8-119.6-44.5-24.9h.8ZM218.9,212.3c-33.3,0-60.4-15.1-60.4-33.8s1.4-8.4,4-12.1c8.7,12.7,30.7,21.6,56.3,21.6s47.6-9,56.3-21.6c2.6,3.8,4,7.8,4,12.1,0,18.6-27,33.8-60.4,33.8h.2ZM334.9,153.4c-33.3,0-60.4-15.1-60.4-33.8s1.4-8.4,4-12.1c8.7,12.7,30.7,21.6,56.3,21.6s47.6-9,56.3-21.6c2.6,3.8,4,7.8,4,12.1,0,18.6-27,33.8-60.4,33.8h.2Z"/>
    <path class="st1" d="M174,35.5c-4.8,3-8.7,6.5-11.4,10.4-.7-1-1.3-2-1.8-3l13.2-7.4Z"/>
  </g>
  <g class="st2">
    <g class="st2">
      <path class="st0" d="M529.4,295.1V72.2h101.7c19.1,0,32.4,10.4,39.8,31.2,1.9,5.3,2.9,10.6,2.9,15.9v26.7c0,16.8-5.7,29-17.2,36.6,8.8,4.7,14.3,13.7,16.6,27.1.4,1.5.6,3.8.6,7v20.7c0,38.4-15.4,57.6-46.1,57.6-2.5.2-10.7.3-24.6.3s-41-.1-73.6-.3ZM624.5,168.4c5.9,0,10.7-2,14.3-5.9,3.6-3.9,5.4-9.2,5.4-15.8v-21.4c0-10.9-5.6-17.6-16.9-20.2-1.1-.4-2.3-.6-3.4-.6h-66.2v64h66.8ZM557.7,262.9h65.9c7.5,0,13.3-4,17.5-12.1,2.1-4,3.2-7.8,3.2-11.5v-21c0-6.6-3.6-11.8-10.9-15.6-2.9-1.5-5.9-2.2-9.2-2.2h-66.5v62.4Z"/>
      <path class="st0" d="M706.8,295.1v-122.9c0-2.8.2-5.9.6-9.6,1.1-11,4-19,8.5-24,4.5-5,11.7-8.3,21.6-10,2.5-.4,4.7-.6,6.6-.6h14v27.7h-12.5c-9.3,0-13.9,5.6-13.9,16.9v122.5h-24.9Z"/>
      <path class="st0" d="M774.7,91.3c0-5.3,1.6-9.8,4.9-13.5,3.2-3.7,7.3-5.6,12-5.6s8.8,2,12.2,5.9c3.3,3.9,5,8.5,5,13.9s-1.6,9.8-4.9,13.4c-3.3,3.6-7.3,5.4-12,5.4s-9.1-1.9-12.3-5.6c-3.3-3.7-4.9-8.3-4.9-13.9ZM779.3,295.1h25.2V127.9h-25.2v167.2Z"/>
      <path class="st0" d="M839.4,252.8v-82.8c0-13.8,3.9-24.4,11.7-31.8,7.3-6.8,17.2-10.2,29.8-10.2h57.6v27.7h-57.8c-10.9,0-16.4,6-16.4,17.9v72.8c0,5.8,1.6,10.7,4.7,14.9,3.2,4.1,7.3,6.2,12.5,6.2h57.2v27.7h-57.3c-8.4,0-15.7-1.9-21.8-5.7-13.6-8.5-20.3-20.7-20.3-36.6Z"/>
      <path class="st0" d="M966.9,72.2h25.2v222.9h-25.2V72.2ZM993.3,208.8c0,4.7,2,9.3,6,14l62.5,72.3h34.6l-74.9-86.6,71.8-80.5h-35.5l-58.5,65.6c-4,4.5-6,9.6-6,15.3Z"/>
      <path class="st0" d="M1112.8,91.3c0-5.3,1.6-9.8,4.9-13.5,3.2-3.7,7.3-5.6,12-5.6s8.8,2,12.2,5.9c3.3,3.9,5,8.5,5,13.9s-1.6,9.8-4.9,13.4c-3.2,3.6-7.3,5.4-12,5.4s-9.1-1.9-12.3-5.6c-3.3-3.7-4.9-8.3-4.9-13.9ZM1117.4,295.1h25.2V127.9h-25.2v167.2Z"/>
      <path class="st0" d="M1177.6,295.1v-124.2c0-28.7,14.1-43,42.4-43h39.5c28.3,0,42.4,14.3,42.4,43v124.2h-24.9v-128.3c-1.3-7-7-10.5-17-10.5h-40.1c-6.4,0-10.8,1.3-13.4,3.8-2.6,2.5-3.9,7.3-3.9,14.3v120.7h-24.9Z"/>
      <path class="st0" d="M1336.9,250.2v-20.1c0-15.1,3-27.2,8.9-36.3,6.7-10.4,16.6-15.6,29.6-15.6h62.1v-11.3c0-3-1-5.7-2.9-7.9-1.9-2.3-4.1-3.4-6.6-3.4h-91.1v-27.7h89.1c19.7,0,31.6,10.3,35.8,30.9.4,3.4.6,5.9.6,7.6v86c0,7.6-1.8,14.8-5.4,21.3-8,14.2-18.4,21.3-31.2,21.3h-50.1c-7.5,0-14.7-2.9-21.8-8.6-7.1-5.7-11.9-12.5-14.6-20.4-1.5-4.7-2.3-10-2.3-15.9ZM1368.5,264.9c2.9,1.7,7.6,2.5,14.1,2.5h34.1c13.9,0,20.8-5.5,20.8-16.6v-27.1c0-10.6-5.9-16.6-17.6-17.8h-40.1c-11.9,1.5-17.9,7.4-17.9,17.8v27.1c0,6.8,2.2,11.5,6.6,14Z"/>
      <path class="st0" d="M1497.4,295.1V72.2h24.9v55.7h26.1v27.7h-26.1v139.5h-24.9Z"/>
      <path class="st0" d="M1563.3,254v-86.9c0-22.9,11.2-35.9,33.5-38.8.8,0,1.9-.1,3.4-.3h49.3c1.3,0,3.3.2,6,.6,22.7,3.6,34.1,16.5,34.1,38.5v86.9c0,15.3-6.9,27.3-20.6,36-5.4,3.4-11.8,5.1-19.5,5.1h-47c-19.1,0-31.6-10.1-37.5-30.2-2.1-6.8-2.7-10.4-1.7-10.8ZM1606.4,267.4h40.7c11.7,0,17.6-7.1,17.6-21.4v-70.2c0-13.4-5.9-20.1-17.6-20.1h-40.7c-12.1,0-18.2,6.7-18.2,20.1v69.3c0,14.9,6.1,22.4,18.2,22.4Z"/>
      <path class="st0" d="M1724.6,295.1v-122.9c0-2.8.2-5.9.6-9.6,1.1-11,4-19,8.5-24,4.5-5,11.7-8.3,21.6-10,2.5-.4,4.7-.6,6.6-.6h14v27.7h-12.5c-9.3,0-13.9,5.6-13.9,16.9v122.5h-24.9Z"/>
    </g>
  </g>
</svg>