<?xml version="1.0" encoding="UTF-8"?>
<svg id="Layer_1" xmlns="http://www.w3.org/2000/svg" version="1.1" viewBox="0 0 722.1 618">
  <!-- Generator: Adobe Illustrator 29.2.1, SVG Export Plug-In . SVG Version: 2.1.0 Build 116)  -->
  <defs>
    <style>
      .st0 {
        fill: #fff;
        fill-rule: evenodd;
      }
    </style>
  </defs>
  <path class="st0" d="M374.5,615.9v-194.5l347.7-194.5v194.5l-347.7,194.5Z"/>
  <path class="st0" d="M347.7,618v-194.5L0,229v194.5l347.7,194.5Z"/>
  <path class="st0" d="M269.2,154c0-30.1-43.6-54.5-97.4-54.5s-97.4,24.4-97.4,54.5,43.6,54.5,97.4,54.5,97.4-24.4,97.4-54.5Z"/>
  <path class="st0" d="M450.9,249c0-30.1-43.6-54.5-97.4-54.5s-97.4,24.4-97.4,54.5,43.6,54.5,97.4,54.5,97.4-24.4,97.4-54.5h0Z"/>
  <path class="st0" d="M638.1,154c0-30.1-43.6-54.5-97.4-54.5s-97.4,24.4-97.4,54.5,43.6,54.5,97.4,54.5,97.4-24.4,97.4-54.5Z"/>
  <path class="st0" d="M363,11.3l-74.5,41.7c17.2-8.6,40-13.9,65-13.9,53.8,0,97.4,24.4,97.4,54.5s-43.6,54.5-97.4,54.5-97.4-24.4-97.4-54.5,9.4-26.7,24.8-36.4l-159.6,89.3c14.7-5,32-7.9,50.5-7.9,53.8,0,97.4,24.4,97.4,54.5s-43.6,54.5-97.4,54.5-97.4-24.4-97.4-54.5,5.2-20,14.1-28.3l-70.6,39.5,345.2,193.1,345.2-193.1L363,11.3ZM353.4,342.6c-53.8,0-97.4-24.4-97.4-54.5s43.6-54.5,97.4-54.5,97.4,24.4,97.4,54.5-43.6,54.5-97.4,54.5ZM540.7,247.7c-53.8,0-97.4-24.4-97.4-54.5s43.6-54.5,97.4-54.5,97.4,24.4,97.4,54.5-43.6,54.5-97.4,54.5Z"/>
  <path class="st0" d="M450.9,54.5C450.9,24.4,407.2,0,353.4,0s-97.4,24.4-97.4,54.5,43.6,54.5,97.4,54.5,97.4-24.4,97.4-54.5h0Z"/>
</svg>