<?xml version="1.0" encoding="UTF-8"?>
<svg id="Layer_1" xmlns="http://www.w3.org/2000/svg" version="1.1" viewBox="0 0 722.1 618">
  <!-- Generator: Adobe Illustrator 29.2.1, SVG Export Plug-In . SVG Version: 2.1.0 Build 116)  -->
  <defs>
    <style>
      .st0 {
        fill: #343a40;
        fill-rule: evenodd;
      }
    </style>
  </defs>
  <path class="st0" d="M374.5,615.9v-194.5l347.7-194.5v194.5l-347.7,194.5Z"/>
  <path class="st0" d="M347.7,618v-194.5L0,229v194.5l347.7,194.5Z"/>
  <path class="st0" d="M88.4,164.9c-3,2.7-5.5,5.6-7.6,8.7-.8-1.1-1.4-2.2-2-3.3l9.7-5.4Z"/>
  <path class="st0" d="M259.6,69.2c.8,1.7,1.8,3.3,2.9,4.9,4.3-6.2,10.5-11.9,18.4-16.8l-21.3,11.9ZM78.8,170.3c.6,1.1,1.3,2.2,2,3.3,2.1-3,4.6-5.9,7.6-8.7l-9.7,5.4Z"/>
  <path class="st0" d="M636.4,164.3c1.1-3.3,1.7-6.7,1.7-10.2,0-30.1-43.6-54.5-97.4-54.5s-12.4.3-18.3,1l-72-40.3c.3-1.9.5-3.8.5-5.7,0-30.1-43.6-54.5-97.4-54.5s-97.4,24.4-97.4,54.5,1.2,10,3.6,14.7l21.3-11.9c-7.8,4.9-14.1,10.5-18.4,16.8,14.1,20.4,49.5,34.9,91,34.9s76.9-14.5,91-34.9c4.2,6.1,6.5,12.7,6.5,19.6,0,30.1-43.6,54.5-97.4,54.5s-97.4-24.4-97.4-54.5,2.3-13.5,6.5-19.6c-1.1-1.6-2.1-3.2-2.9-4.9l-58.7,32.8c-9.2-1.6-19-2.5-29.1-2.5-53.8,0-97.4,24.4-97.4,54.5s1.5,11.2,4.4,16.3l9.7-5.4c-3,2.7-5.5,5.6-7.6,8.7,14.1,20.4,49.5,34.9,91,34.9s76.9-14.5,91-34.9c4.2,6.1,6.5,12.7,6.5,19.6,0,30.1-43.6,54.5-97.4,54.5s-97.4-24.4-97.4-54.5,2.3-13.5,6.5-19.6c-.8-1.1-1.4-2.2-2-3.3l-61,34.1,345.2,193.1,345.2-193.1-71.8-40.2ZM353.4,342.7c-53.8,0-97.4-24.4-97.4-54.5s2.3-13.5,6.5-19.6c14.1,20.4,49.5,34.9,91,34.9s76.9-14.5,91-34.9c4.2,6.1,6.5,12.7,6.5,19.6,0,30.1-43.6,54.5-97.4,54.5ZM540.7,247.7c-53.8,0-97.4-24.4-97.4-54.5s2.3-13.5,6.5-19.6c14.1,20.4,49.5,34.9,91,34.9s76.9-14.5,90.9-34.9c4.2,6.1,6.5,12.7,6.5,19.6,0,30.1-43.6,54.5-97.4,54.5Z"/>
  <path class="st0" d="M280.8,57.3c-7.8,4.9-14.1,10.5-18.4,16.8-1.1-1.6-2.1-3.2-2.9-4.9l21.3-11.9Z"/>
</svg>